<?xml version="1.0" encoding="utf-8"?>
<!-- Generator: Adobe Illustrator 26.1.0, SVG Export Plug-In . SVG Version: 6.00 Build 0)  -->
<svg version="1.1" id="Layer_1" xmlns="http://www.w3.org/2000/svg" xmlns:xlink="http://www.w3.org/1999/xlink" x="0px" y="0px"
	 viewBox="0 0 1510.2 300.3" style="enable-background:new 0 0 1510.2 300.3;" xml:space="preserve">
<style type="text/css">
	.st0{fill:#0D1A2E;}
	.st1{fill:#EBEBEB;}
	.st2{fill:#E5AB63;}
	.st3{fill:#FFFFFF;}
</style>
<g>
	<path class="st3" d="M351.3,87.4c-69.2,0-114,45.2-114,106.4c0,64.8,38.2,106.5,106.9,106.5c67.4,0,113.1-47.9,113.1-109.1
		C457.2,128.7,418.6,87.4,351.3,87.4z M382.5,227.4c-21,39.6-46.6,56.6-72.9,42.7c-35.2-18.7-13.7-79.1,2.1-108.9
		c16-30.2,42.3-59.8,72.9-43.6C420.9,136.9,398.7,196.8,382.5,227.4z"/>
	<path class="st3" d="M207.8,34.7c-22.8-16.1-53.2-16.6-86.7-16.6c-19.9,0-98.7,0.6-120.7,0.8v16.1h5.4c6.7,0,11.6,1.8,14.3,5.4
		c4,5.4,4.4,12.1,4.4,37.5v135.4c0,20.7-0.8,21.7-1.8,37.9c-0.2,2.2-0.4,4.2-0.4,4.2C21,268.9,17.1,275,13,277.7
		c-3,2.1-6.2,2.3-8.5,2.3c-0.2,0-0.4,0-0.6,0c-2.1,0-3.9,0-3.9,0v13.8h115.4v-13.8h-5.1c0,0-1.8,0-3.9,0c-5.5,0-18.8-0.8-18.8-28.9
		V192c22.3,0,43.8-0.9,61.2-3.1c19.6-3.1,37.5-11.6,52.3-23.2c22.8-17.4,34.4-42.9,34.4-71.5C235.5,68.7,225.2,46.8,207.8,34.7z
		 M111.8,169.7c-9.4,0-16.1-0.9-24.1-2.7v-42c0-30,0.4-47.4,3.1-83.6c4.4-1.4,13.8-1.8,18.8-1.8c42.4,0,58.1,28.2,58.1,64.4
		C167.6,145.5,142.1,169.7,111.8,169.7z"/>
	<path class="st3" d="M1505.1,280.1c0,0-1.8,0-3.9,0c-5.5,0-18.9-0.8-18.9-28.9V171c0-14.7-0.5-26.8-1.8-35.3
		c-1.8-11.2-4.9-21.4-15.2-30.8c-11.1-10.7-26.8-15.2-42.4-15.2c-33.1,0-50.5,15.7-76,38c-3.1-9.4-7.6-17.9-14.3-24.1
		c-10.3-9.4-25-13.8-41.1-13.8c-32.2,0-49.2,15.2-73.3,36.2l-1.8-31l-3.1-4l-75.4,15.8v14.7c18.3,0,24.9,0.3,24.9,34.9v33.9
		c0,20.7-1.1,44.9-2.1,61.1c-0.2,2.2-0.4,4.2-0.4,4.2c-1.4,13.3-5.3,19.4-9.4,22.1c-3,2.1-6.2,2.3-8.5,2.3c-0.2,0-0.4,0-0.6,0
		c-2.1,0-3.9,0-3.9,0v13.8H1247v-13.8h-5.1c0,0-1.8,0-3.9,0c-5.5,0-19-0.8-19-28.9v-77c0-20.1,2.2-26.8,10.3-34
		c7.6-6.7,17.9-10.8,29.1-10.8c14.3,0,26.3,7.6,31.7,20.6c3.1,7.2,4,15.2,4,28.6l0,11.6v0c0,20.7-0.9,44.9-1.9,61.1
		c-0.2,2.2-0.4,4.2-0.4,4.2c-1.4,13.3-5.3,19.4-9.4,22.1c-3,2.1-6.2,2.3-8.5,2.3c-0.2,0-0.4,0-0.6,0c-2.1,0-3.9,0-3.9,0v13.8h24.6
		h10.4h45.9h27.9v-13.8h-5.1c0,0-1.8,0-3.9,0c-5.5,0-18.9-0.8-18.9-28.9v-76.1c0-21,2.2-27.7,10.3-34.4c7.6-7.2,17.9-11.2,29.1-11.2
		c14.3,0,26.3,7.6,31.7,20.6c3.1,7.2,4,15.2,4,28.6v11.6c0,20.7-0.8,44.9-1.8,61.1c-0.2,2.2-0.4,4.2-0.4,4.2
		c-1.4,13.3-5.3,19.4-9.4,22.1c-3,2.1-6.2,2.3-8.5,2.3c-0.2,0-0.4,0-0.6,0c-2.1,0-3.9,0-3.9,0v13.8h109.3v-13.8H1505.1z"/>
	<path class="st3" d="M709.3,280.6c0,0-1.8,0-3.9,0c-5.5,0-18.9-1.1-18.9-29.2V79.3c0-27.3,0.9-49.3,3.6-75.7L687,0L605,17.1v14.7
		h0.2c18.3,0,24.9-2.1,24.9,31.9v27.8c-9.8-1.3-17-1.8-26.3-1.8c-75.5,0-116.7,50.9-116.7,120.2c0,48.7,30.4,90.3,75.1,90.3
		c17.4,0,30.4-5.8,41.1-13.4c9.8-7.2,17.9-13.9,30.8-25l1.3,32.1l51,0l27.9,0l-0.1-13.3H709.3z M629.7,208.6c0,21,0,28.6-6.7,36.6
		c-7.6,8.9-17.9,13.8-29.5,13.8c-35.7,0-46.9-46-46.9-74.6c0-43.4,17.9-68.9,49.2-69.3c10.3,0,18.8,2.7,25,8.5
		c6.3,5.4,8.9,12.5,8.9,21.9V208.6z"/>
	<path class="st3" d="M824.1,251.7v-94.1c0.3-20.2,1.3-18.5,3.5-39.6l-3.1-3.6l-81.6,17v14.7h0.3c18.3,0,24.6-4.8,24.6,29.1v15.4
		c0,20.7-0.8,44.9-1.7,61.2c-0.2,2.2-0.4,4.2-0.4,4.2c-1.4,13.3-5.3,19.4-9.4,22.1c-3,2.1-6.2,2.3-8.5,2.3c-0.2,0-4.5,0-4.5,0v13.4
		l108.7,0v-13.4c0,0-6.9,0-9,0C837.4,280.6,824.1,279.8,824.1,251.7z"/>
	<path class="st3" d="M792.2,79.7c19.9,0,33.4-14.1,33.4-32.2c0-18.4-11.4-30.6-31.3-30.6c-20.4,0-33.6,13.3-33.6,31.4
		C760.7,67.4,771.9,79.7,792.2,79.7z"/>
	<path class="st3" d="M1079,251.2v-85c0-25.5,1.3-48.6,3.6-70.9l-2.7-4l-82.1,17.3v14.7h0.3c18.3,0,24.6-2.2,24.6,31.8v59.9
		c0,21.5-2.2,28.2-9.9,34.9c-7.6,7.2-18.3,10.7-29.1,10.7c-13.4,0-24.6-6.3-29.9-18.3c-5.3-7.6-6.2-17-6.2-30.8v-43.8
		c0-25.5,0.9-50,3.6-72.8l-3.1-4l-81.6,17.2v14.7h0.3c18.3,0,24.6-1.6,24.6,32.4v63.5c0,23.2,0.4,30.8,4,40.7
		c6.7,26.4,27.3,41.1,55.4,41.1c12.5,0,25-2.7,35.8-8.5c11.6-6.7,18.3-12.5,37.5-28.2l1.4,30.4h81.5v-13.8c0,0-6.9,0-9,0
		C1092.3,280.1,1079,279.3,1079,251.2z"/>
</g>
</svg>
