<?xml version="1.0" encoding="utf-8"?>
<!-- Generator: Adobe Illustrator 26.1.0, SVG Export Plug-In . SVG Version: 6.00 Build 0)  -->
<svg version="1.1" id="Layer_1" xmlns="http://www.w3.org/2000/svg" xmlns:xlink="http://www.w3.org/1999/xlink" x="0px" y="0px"
	 viewBox="0 0 235.5 275.8" style="enable-background:new 0 0 235.5 275.8;" xml:space="preserve">
<style type="text/css">
	.st0{fill:#0D1A2E;}
	.st1{fill:#EBEBEB;}
	.st2{fill:#E5AB63;}
</style>
<g>
	<path class="st2" d="M207.8,16.6C185.1,0.5,154.7,0,121.1,0C101.2,0,22.4,0.6,0.4,0.8V17h5.4c6.7,0,11.6,1.8,14.3,5.4
		c4,5.4,4.4,12.1,4.4,37.5v135.4c0,20.7-0.8,21.7-1.8,37.9c-0.2,2.2-0.4,4.2-0.4,4.2c-1.4,13.3-5.3,19.4-9.4,22.1
		c-3,2.1-6.2,2.3-8.5,2.3c-0.2,0-0.4,0-0.6,0c-2.1,0-3.9,0-3.9,0v13.8h115.4v-13.8h-5.1c0,0-1.8,0-3.9,0c-5.5,0-18.8-0.8-18.8-28.9
		v-59.1c22.3,0,43.8-0.9,61.2-3.1c19.6-3.1,37.5-11.6,52.3-23.2c22.8-17.4,34.4-42.9,34.4-71.5C235.5,50.5,225.2,28.6,207.8,16.6z
		 M111.8,151.5c-9.4,0-16.1-0.9-24.1-2.7v-42c0-30,0.4-47.4,3.1-83.6c4.4-1.4,13.8-1.8,18.8-1.8c42.4,0,58.1,28.2,58.1,64.4
		C167.6,127.4,142.1,151.5,111.8,151.5z"/>
	<path class="st2" d="M202.2,275.8c19.9,0,33.4-14.1,33.4-32.2c0-18.4-11.4-30.6-31.3-30.6c-20.4,0-33.6,13.3-33.6,31.4
		C170.7,263.4,181.9,275.8,202.2,275.8z"/>
</g>
</svg>
