<?xml version="1.0" encoding="utf-8"?>
<!-- Generator: Adobe Illustrator 26.1.0, SVG Export Plug-In . SVG Version: 6.00 Build 0)  -->
<svg version="1.1" id="Layer_1" xmlns="http://www.w3.org/2000/svg" xmlns:xlink="http://www.w3.org/1999/xlink" x="0px" y="0px"
	 viewBox="0 0 1510.2 501.6" style="enable-background:new 0 0 1510.2 501.6;" xml:space="preserve">
<style type="text/css">
	.st0{fill:#0D1A2E;}
	.st1{fill:#EBEBEB;}
	.st2{fill:#E5AB63;}
	.st3{fill:#FFFFFF;}
</style>
<g>
	<g>
		<path class="st3" d="M351.3,87.4c-69.2,0-114,45.2-114,106.4c0,64.8,38.2,106.5,106.9,106.5c67.4,0,113.1-47.9,113.1-109.1
			C457.2,128.7,418.6,87.4,351.3,87.4z M382.5,227.4c-21,39.6-46.6,56.6-72.9,42.7c-35.2-18.7-13.7-79.1,2.1-108.9
			c16-30.2,42.3-59.8,72.9-43.6C420.9,136.9,398.7,196.8,382.5,227.4z"/>
		<path class="st3" d="M207.8,34.7c-22.8-16.1-53.2-16.6-86.7-16.6c-19.9,0-98.7,0.6-120.7,0.8v16.1h5.4c6.7,0,11.6,1.8,14.3,5.4
			c4,5.4,4.4,12.1,4.4,37.5v135.4c0,20.7-0.8,21.7-1.8,37.9c-0.2,2.2-0.4,4.2-0.4,4.2C21,268.9,17.1,275,13,277.7
			c-3,2.1-6.2,2.3-8.5,2.3c-0.2,0-0.4,0-0.6,0c-2.1,0-3.9,0-3.9,0v13.8h115.4v-13.8h-5.1c0,0-1.8,0-3.9,0c-5.5,0-18.8-0.8-18.8-28.9
			V192c22.3,0,43.8-0.9,61.2-3.1c19.6-3.1,37.5-11.6,52.3-23.2c22.8-17.4,34.4-42.9,34.4-71.5C235.5,68.7,225.2,46.8,207.8,34.7z
			 M111.8,169.7c-9.4,0-16.1-0.9-24.1-2.7v-42c0-30,0.4-47.4,3.1-83.6c4.4-1.4,13.8-1.8,18.8-1.8c42.4,0,58.1,28.2,58.1,64.4
			C167.6,145.5,142.1,169.7,111.8,169.7z"/>
		<path class="st3" d="M1505.1,280.1c0,0-1.8,0-3.9,0c-5.5,0-18.9-0.8-18.9-28.9V171c0-14.7-0.5-26.8-1.8-35.3
			c-1.8-11.2-4.9-21.4-15.2-30.8c-11.1-10.7-26.8-15.2-42.4-15.2c-33.1,0-50.5,15.7-76,38c-3.1-9.4-7.6-17.9-14.3-24.1
			c-10.3-9.4-25-13.8-41.1-13.8c-32.2,0-49.2,15.2-73.3,36.2l-1.8-31l-3.1-4l-75.4,15.8v14.7c18.3,0,24.9,0.3,24.9,34.9v33.9
			c0,20.7-1.1,44.9-2.1,61.1c-0.2,2.2-0.4,4.2-0.4,4.2c-1.4,13.3-5.3,19.4-9.4,22.1c-3,2.1-6.2,2.3-8.5,2.3c-0.2,0-0.4,0-0.6,0
			c-2.1,0-3.9,0-3.9,0v13.8H1247v-13.8h-5.1c0,0-1.8,0-3.9,0c-5.5,0-19-0.8-19-28.9v-77c0-20.1,2.2-26.8,10.3-34
			c7.6-6.7,17.9-10.8,29.1-10.8c14.3,0,26.3,7.6,31.7,20.6c3.1,7.2,4,15.2,4,28.6l0,11.6v0c0,20.7-0.9,44.9-1.9,61.1
			c-0.2,2.2-0.4,4.2-0.4,4.2c-1.4,13.3-5.3,19.4-9.4,22.1c-3,2.1-6.2,2.3-8.5,2.3c-0.2,0-0.4,0-0.6,0c-2.1,0-3.9,0-3.9,0v13.8h24.6
			h10.4h45.9h27.9v-13.8h-5.1c0,0-1.8,0-3.9,0c-5.5,0-18.9-0.8-18.9-28.9v-76.1c0-21,2.2-27.7,10.3-34.4
			c7.6-7.2,17.9-11.2,29.1-11.2c14.3,0,26.3,7.6,31.7,20.6c3.1,7.2,4,15.2,4,28.6v11.6c0,20.7-0.8,44.9-1.8,61.1
			c-0.2,2.2-0.4,4.2-0.4,4.2c-1.4,13.3-5.3,19.4-9.4,22.1c-3,2.1-6.2,2.3-8.5,2.3c-0.2,0-0.4,0-0.6,0c-2.1,0-3.9,0-3.9,0v13.8h109.3
			v-13.8H1505.1z"/>
		<path class="st3" d="M709.3,280.6c0,0-1.8,0-3.9,0c-5.5,0-18.9-1.1-18.9-29.2V79.3c0-27.3,0.9-49.3,3.6-75.7L687,0L605,17.1v14.7
			h0.2c18.3,0,24.9-2.1,24.9,31.9v27.8c-9.8-1.3-17-1.8-26.3-1.8c-75.5,0-116.7,50.9-116.7,120.2c0,48.7,30.4,90.3,75.1,90.3
			c17.4,0,30.4-5.8,41.1-13.4c9.8-7.2,17.9-13.9,30.8-25l1.3,32.1l51,0l27.9,0l-0.1-13.3H709.3z M629.7,208.6c0,21,0,28.6-6.7,36.6
			c-7.6,8.9-17.9,13.8-29.5,13.8c-35.7,0-46.9-46-46.9-74.6c0-43.4,17.9-68.9,49.2-69.3c10.3,0,18.8,2.7,25,8.5
			c6.3,5.4,8.9,12.5,8.9,21.9V208.6z"/>
		<path class="st3" d="M824.1,251.7v-94.1c0.3-20.2,1.3-18.5,3.5-39.6l-3.1-3.6l-81.6,17v14.7h0.3c18.3,0,24.6-4.8,24.6,29.1v15.4
			c0,20.7-0.8,44.9-1.7,61.2c-0.2,2.2-0.4,4.2-0.4,4.2c-1.4,13.3-5.3,19.4-9.4,22.1c-3,2.1-6.2,2.3-8.5,2.3c-0.2,0-4.5,0-4.5,0v13.4
			l108.7,0v-13.4c0,0-6.9,0-9,0C837.4,280.6,824.1,279.8,824.1,251.7z"/>
		<path class="st3" d="M792.2,79.7c19.9,0,33.4-14.1,33.4-32.2c0-18.4-11.4-30.6-31.3-30.6c-20.4,0-33.6,13.3-33.6,31.4
			C760.7,67.4,771.9,79.7,792.2,79.7z"/>
		<path class="st3" d="M1079,251.2v-85c0-25.5,1.3-48.6,3.6-70.9l-2.7-4l-82.1,17.3v14.7h0.3c18.3,0,24.6-2.2,24.6,31.8v59.9
			c0,21.5-2.2,28.2-9.9,34.9c-7.6,7.2-18.3,10.7-29.1,10.7c-13.4,0-24.6-6.3-29.9-18.3c-5.3-7.6-6.2-17-6.2-30.8v-43.8
			c0-25.5,0.9-50,3.6-72.8l-3.1-4l-81.6,17.2v14.7h0.3c18.3,0,24.6-1.6,24.6,32.4v63.5c0,23.2,0.4,30.8,4,40.7
			c6.7,26.4,27.3,41.1,55.4,41.1c12.5,0,25-2.7,35.8-8.5c11.6-6.7,18.3-12.5,37.5-28.2l1.4,30.4h81.5v-13.8c0,0-6.9,0-9,0
			C1092.3,280.1,1079,279.3,1079,251.2z"/>
	</g>
	<g>
		<path class="st3" d="M193.2,480.9v-2.9h1c1.5,0,1.9-0.5,2.1-2.7c0.2-2.5,0.5-8.3,0.5-13.1v-24.5c0-4.6-0.1-5.8-0.8-6.8
			c-0.5-0.6-1.4-1-2.6-1h-2V427h12.2c3.2,0,6.5-0.2,10.7-0.2c6.1,0,11.5,0.1,15.7,3c3.1,2.2,5,6.1,5,10.7c0,5.2-2.1,9.8-6.2,12.9
			c-2.7,2.1-5.9,3.6-9.4,4.2c-3.1,0.4-7,0.6-11.1,0.6v12.2c0,3.4,0.2,4.8,0.5,5.9c0.4,1,1.5,1.6,2.9,1.6h3.5v2.9H193.2z
			 M212.2,430.7c-0.9,0-2.6,0.1-3.4,0.3c-0.5,6.5-0.6,9.7-0.6,15.1v7.6c1.5,0.3,2.7,0.5,4.4,0.5c5.5,0,10.1-4.4,10.1-11.9
			C222.7,435.8,219.8,430.7,212.2,430.7z"/>
		<path class="st3" d="M310.8,480.9l-16.5,0.2l-1.1-0.2c-2-3.2-2.8-5.9-5.1-10.5l-2.9-5.8c-3.2-6.5-5.4-9.2-9-9.2
			c-0.4,0-1.2,0.1-1.9,0.2v14.9c0,3.1,0.2,4.8,0.6,5.9c0.5,1.2,1.3,1.6,2.8,1.6h2v2.9h-20.4v-2.9h1c1.5,0,1.9-0.5,2.1-2.7
			c0.2-2.5,0.5-8.3,0.5-13.1v-24.5c0-4.6-0.1-5.8-0.8-6.8c-0.5-0.6-1.4-1-2.6-1h-2V427h12.2c3.6,0,6.4-0.2,11.9-0.2
			c4.6,0,9.1,0.3,12.7,2.4c3.4,1.9,5.2,5.5,5.2,9.6c0,6.8-5.3,10.6-11.5,13.3c3.2,1.1,4.7,2.9,6.7,6.4l4.8,8.4c1.8,3,4,6.8,5.4,8.6
			c1.2,1.6,2.7,2.4,4,2.4h1.9V480.9z M277.8,430.6c-0.7,0-2.3,0.2-3.1,0.3c-0.5,6.5-0.6,9.7-0.6,15.1v5.7c0.7,0.1,1.9,0.2,2.6,0.2
			c6.8,0,10.3-4.3,10.3-11.3C287,434.6,283.8,430.6,277.8,430.6z"/>
		<path class="st3" d="M355.4,482.2c-17.3,0-28.3-11.1-28.3-27.4c0-17.5,11.6-29.1,30.6-29.1c17.4,0,28.3,10.4,28.3,27
			C386,469.9,373.5,482.2,355.4,482.2z M356,430c-9.8,0-15.7,9.1-15.7,22.5c0,15.4,6.1,25.4,16.4,25.4c11.4,0,15.9-11.2,15.9-22.5
			C372.6,439.8,366.7,430,356,430z"/>
		<path class="st3" d="M428.7,429.9c-1.5,0-1.9,0.5-2.1,2.7c-0.2,2.6-0.5,8.4-0.5,13.3v13.1c0,4,0.2,9.6,0.2,11.7
			c0,6.5-0.5,10.8-2.6,15.1c-3,6.2-9.4,10.5-17.6,14.9l-1.7,0.9l-1.7-3.3l1.4-1c8-5.7,9.6-11.6,10.3-20.9c0.3-3.6,0.3-7.3,0.3-11.9
			V439c0-3.8-0.3-6.1-0.9-7.3c-0.5-1-1.5-1.7-3.1-1.7h-3V427h22v2.9H428.7z"/>
		<path class="st3" d="M491,480.4l-0.8,0.6l-34.4-0.2v-2.9h1c1.5,0,1.9-0.5,2.1-2.7c0.2-2.5,0.5-8.3,0.5-13.1v-24.5
			c0-4.6-0.1-5.8-0.8-6.8c-0.5-0.6-1.4-1-2.6-1h-2V427l34.5-0.2l0.8,0.6v10.7H486v-2.3c0-1.1-0.6-1.9-1.5-2.6
			c-1.8-1.4-4.7-2.2-8.2-2.2c-1.4,0-3.8,0.2-4.8,0.6c-0.5,5.5-0.6,8.4-0.6,14.5v3.9h3.6c4.3,0,9-0.3,13.6-0.6l-0.5,6.1
			c-4.1-0.3-7.4-0.5-13-0.5h-3.7v12.3c0,3.2,0.1,4.5,0.3,5.8c0.4,2.6,2.1,3.4,6.4,3.4c2.6,0,6.6-0.5,9-1.9c1.7-1,2.7-2.5,3.4-5.2
			l0.3-1.6l3.2,0.7L491,480.4z"/>
		<path class="st3" d="M561.7,478.9l-0.7,0.6c-4.8,1.5-9.6,2.2-15.7,2.2c-17.8,0-29.6-10.9-29.6-27.9c0-9.8,4.7-18.2,12.8-23.1
			c5.3-3.2,11.6-4.6,19.9-4.6c4.4,0,9.4,0.6,13.6,1.9l0.8,0.9v11.6h-3.4v-3.3c0-1.5-0.2-1.9-0.8-2.7c-2-2.3-7.2-3.9-11.8-3.9
			c-11.3,0-18.8,8.3-18.8,21.7c0,13.7,7.9,24.5,19.6,24.5c7.1,0,11.9-2.3,14-8.4l0.5-1.4l3.1,1L561.7,478.9z"/>
		<path class="st3" d="M630.9,439.4V436c0-1.9-1.5-3.4-4.1-4.2c-1.6-0.5-3.6-0.7-5.4-0.7c-1.3,0-3.2,0-4.8,0.1
			c-0.5,5.6-0.6,8.3-0.6,14.4v24.9c0,3.1,0.1,4.8,0.6,5.9c0.5,1.2,1.4,1.6,2.8,1.6h2.1v2.9h-21.6v-2.9h2.1c1.5,0,1.9-0.5,2.1-2.7
			c0.2-2.5,0.5-8.3,0.5-13.1V444c0-5.2,0-7.9-0.4-12.8c-1.7-0.1-3.7-0.1-5-0.1c-1.9,0-3.9,0.2-5.4,0.6c-2.6,0.8-4.1,2.3-4.1,4.3v3.4
			h-3.5v-11.9l0.8-0.6c3.1,0,14.2,0.1,22.8,0.1c10.1,0,20.7,0,23.7-0.1l0.8,0.6v11.9H630.9z"/>
		<path class="st3" d="M741.5,480.9v-2.9h0.8c1,0,1.5-0.6,1.6-1.9c0.2-1.5,0.2-3.4,0.2-5.4c0-3-0.2-12.7-0.7-30.3l-12.3,24.5
			c-2.1,4.2-3.5,7.3-4.6,10.5H720c-1.2-3.5-1.9-5.2-4.4-10.1L704.3,443c-0.2,9.4-0.5,17-0.5,25.9c0,4.3,0.3,6.2,1.1,7.5
			c0.6,0.9,1.7,1.5,3,1.5h2.1v2.9h-15.7v-2.9h0.9c1.1,0,1.6-0.5,1.9-2.7c0.4-3,0.6-8.2,0.7-12.4l0.8-26.2c0-1.4-0.1-3.1-0.5-4.2
			c-0.6-1.6-1.9-2.4-4.4-2.4H692v-2.8l17.6-0.1c1.1,3.1,1.7,4.5,4.3,9.8l12.6,25.9l12.6-25.8c2.3-4.8,2.8-5.8,4.4-9.8l14.5,0.1v2.8
			h-1.2c-1.5,0-1.9,0.9-2.1,3.6c0,1.5-0.1,4-0.1,4.7l1,31.6c0.1,3.4,0.2,5.4,0.5,6.4c0.4,1,1.5,1.8,2.9,1.8h2.1v2.9H741.5z"/>
		<path class="st3" d="M817.6,480.9v-2.9h1c1,0,1.3-0.5,1.3-1.5s-0.9-4.6-2.5-9.2l-1.8-5.4c-2.3-0.1-5.9-0.2-8.9-0.2
			c-3.1,0-7,0.1-9.6,0.2l-2,5.1c-1.4,3.6-2,6-2,8c0,1.9,1,3.1,4.1,3.1h2v2.9h-17.6v-2.9h0.8c0.6,0,1-0.1,1.5-0.6
			c1.3-1.5,4-8.2,5-10.7l13.2-32c1.2-3.1,2.1-5.9,2.7-8.6h10.7c0.6,3.1,1.2,5,2.3,7.8l11.7,32c3.1,8.4,4.6,12,7.8,12h1.5v2.9H817.6z
			 M806.8,436l-8,20.9c1.5,0,5.4,0.2,7.7,0.2s5.8-0.2,7.4-0.2L806.8,436z"/>
		<path class="st3" d="M912.6,480.9l-16.5,0.2l-1.1-0.2c-2-3.2-2.8-5.9-5.1-10.5l-2.9-5.8c-3.2-6.5-5.4-9.2-9-9.2
			c-0.4,0-1.2,0.1-1.9,0.2v14.9c0,3.1,0.2,4.8,0.6,5.9c0.5,1.2,1.3,1.6,2.8,1.6h2v2.9h-20.4v-2.9h1c1.5,0,1.9-0.5,2.1-2.7
			c0.2-2.5,0.5-8.3,0.5-13.1v-24.5c0-4.6-0.1-5.8-0.8-6.8c-0.5-0.6-1.4-1-2.6-1h-2V427h12.2c3.6,0,6.4-0.2,11.9-0.2
			c4.6,0,9.1,0.3,12.7,2.4c3.4,1.9,5.2,5.5,5.2,9.6c0,6.8-5.3,10.6-11.5,13.3c3.2,1.1,4.7,2.9,6.7,6.4l4.8,8.4c1.8,3,4,6.8,5.4,8.6
			c1.2,1.6,2.7,2.4,4,2.4h1.9V480.9z M879.6,430.6c-0.7,0-2.3,0.2-3.1,0.3c-0.5,6.5-0.6,9.7-0.6,15.1v5.7c0.7,0.1,1.9,0.2,2.6,0.2
			c6.8,0,10.3-4.3,10.3-11.3C888.8,434.6,885.5,430.6,879.6,430.6z"/>
		<path class="st3" d="M970.8,481.1l-1-0.2c-0.9-1.5-1.9-3.4-2.5-4.8c-1.2-2.5-2.8-5.7-3.7-7.1c-4.7-8.1-6.8-11.1-9.1-13.6
			c-0.5,0.3-1,0.9-1.9,1.9l-1.4,1.6c-1.1,1.3-1.9,2.7-1.9,5.4v6.1c0,3.6,0.2,5.4,0.8,6.4c0.5,0.8,1.3,1.1,2.6,1.1h2v2.9h-20.4v-2.9
			h1c1.5,0,1.9-0.5,2.1-2.7c0.2-2.5,0.5-8.3,0.5-13.1v-24.5c0-4.6-0.1-5.8-0.8-6.8c-0.5-0.6-1.4-1-2.6-1h-2V427h20.4v2.9h-1
			c-1.5,0-1.9,0.5-2.1,2.7c-0.2,2.5-0.5,8.2-0.5,13.4v8.1l11.5-12.8c3.3-3.7,5.4-6.7,5.4-8.9c0-1.5-1.2-2.5-3.3-2.5H961V427h20.1
			v2.9h-1c-1.8,0-3.6,2.3-6.4,5.2l-11.1,11.6l-0.1,0.6c1.5,1.7,2.9,3.6,4.8,6.7l6.9,11c2.2,3.3,4.4,6.8,6.5,9.6
			c1.9,2.5,3.3,3.3,5,3.3h2v2.9L970.8,481.1z"/>
		<path class="st3" d="M1044.8,480.4l-0.8,0.6l-34.4-0.2v-2.9h1c1.5,0,1.9-0.5,2.1-2.7c0.2-2.5,0.5-8.3,0.5-13.1v-24.5
			c0-4.6-0.1-5.8-0.8-6.8c-0.5-0.6-1.4-1-2.6-1h-2V427l34.5-0.2l0.8,0.6v10.7h-3.3v-2.3c0-1.1-0.6-1.9-1.5-2.6
			c-1.8-1.4-4.7-2.2-8.2-2.2c-1.4,0-3.8,0.2-4.8,0.6c-0.5,5.5-0.6,8.4-0.6,14.5v3.9h3.6c4.3,0,9-0.3,13.6-0.6l-0.5,6.1
			c-4.1-0.3-7.4-0.5-13-0.5h-3.7v12.3c0,3.2,0.1,4.5,0.3,5.8c0.4,2.6,2.1,3.4,6.4,3.4c2.6,0,6.6-0.5,9-1.9c1.7-1,2.7-2.5,3.4-5.2
			l0.3-1.6l3.2,0.7L1044.8,480.4z"/>
		<path class="st3" d="M1110.4,439.4V436c0-1.9-1.5-3.4-4.1-4.2c-1.6-0.5-3.6-0.7-5.4-0.7c-1.3,0-3.2,0-4.8,0.1
			c-0.5,5.6-0.6,8.3-0.6,14.4v24.9c0,3.1,0.1,4.8,0.6,5.9c0.5,1.2,1.4,1.6,2.8,1.6h2.1v2.9h-21.6v-2.9h2.1c1.5,0,1.9-0.5,2.1-2.7
			c0.2-2.5,0.5-8.3,0.5-13.1V444c0-5.2,0-7.9-0.4-12.8c-1.7-0.1-3.7-0.1-5-0.1c-1.9,0-3.9,0.2-5.4,0.6c-2.6,0.8-4.1,2.3-4.1,4.3v3.4
			h-3.5v-11.9l0.8-0.6c3.1,0,14.2,0.1,22.8,0.1c10.1,0,20.7,0,23.7-0.1l0.8,0.6v11.9H1110.4z"/>
		<path class="st3" d="M1136.1,480.9v-2.9h2c1.5,0,1.9-0.5,2.1-2.7c0.2-2.5,0.5-8.3,0.5-13.1v-24.5c0-3.8-0.1-5-0.5-6.1
			c-0.4-1.1-1.3-1.6-2.9-1.6h-2V427h21.4v2.9h-2c-1.5,0-1.9,0.5-2.1,2.7c-0.2,2.6-0.5,8.4-0.5,13.3v24.5c0,3.4,0.2,4.8,0.5,5.9
			c0.4,1,1.5,1.6,2.9,1.6h2v2.9H1136.1z"/>
		<path class="st3" d="M1239.7,429.9h-1.1c-1.8,0-1.9,0.9-2.1,3.5c-0.3,3.5-0.4,8.7-0.4,12.3v24.1c0,4.3-0.1,7,0.2,12.2h-9
			c-3.1-4.3-4.8-6.9-8.5-11.3l-26.1-31.4c0,2.7,0.2,15.5,0.2,20.3c0,6.6,0.2,11.5,1,14.7c0.6,2.7,1.9,3.6,4.8,3.6h2v2.9h-17.8v-2.9
			h1c1.8,0,1.9-0.9,2.2-3.5c0.3-3.3,0.4-9.1,0.4-12.3v-18.6c0-5.1-0.2-8.5-0.9-10.6c-0.5-1.9-1.9-3.1-3.7-3.1h-2.1v-2.8l18.8-0.1
			c1.8,2.9,4,6,6.5,9l24.5,30.7c0-2.1-0.1-14.3-0.1-18.4c0-6.8-0.3-11.5-1-14.7c-0.6-2.7-1.9-3.6-4.8-3.6h-2V427h17.8V429.9z"/>
		<path class="st3" d="M1317.7,461.5c-1.5,0-1.8,0.5-2.1,2.8c-0.2,1.1-0.3,4.7-0.3,7.7c0,1.2,0,3.1,0.2,6.1l-0.7,1.1
			c-5.3,1.8-14.9,2.6-21.1,2.6c-9,0-17-2.4-22.2-7.7c-4.8-4.9-7.3-11.9-7.3-20.1c0-11.1,5.4-19.6,15.2-24.4
			c5.2-2.5,11.5-3.4,19.1-3.4c5,0,10.3,0.6,14.9,1.9l0.8,0.8v12.8h-3.8v-4.2c0-1.5-0.2-2.1-1-2.8c-2.3-2.2-7.7-3.7-12.7-3.7
			c-12.5,0-19.9,8.2-19.9,21.6c0,7.7,2,14.1,5.6,18.5c3.4,4.2,8.2,6.3,14,6.3c2.5,0,4.9-0.3,6.2-1.1c1.4-0.8,1.7-2.4,1.7-4.7v-3.1
			c0-2.5-0.1-4-0.5-5c-0.5-1-1.5-1.5-3.2-1.5h-3.3v-3.4h21.7v3H1317.7z"/>
	</g>
</g>
</svg>
